PathFileType	4	(X/Y/Z)	Walk3.trc
DataRate	CameraRate	NumFrames	NumMarkers	Units	OrigDataRate	OrigDataStartFrame	OrigNumFrames
200.000000	200.000000	4	61	mm	200.000000	653	737
Frame#	Times		LTH3		RCAR		LBHD		RTH2		LWRU		LUA1		LElbow		RTH3		LFA1		LCAR		C7		RPSI		LElbowM		RTB3		RBHD		RASI		RTB1		RTB2		RToe		LTH4		RFA1		RMT5		RWRU		LWRR		LTH2		RLFC		RElbow		RTB4		RMT1		RMMAL		T10		RBack		RLMAL		STRN		LASI		LPSI		CLAV		RCAL		RUA1		RElbowM		LLFC		LFHD		LACR1		LTB3		RFHD		LTB4		LCAL		RACR1		LTB2		LMMAL		RTH1		LTB1		LMT5		LLMAL		RTH4		LMFC		RWRR		RMFC		LTH1		LToe		LMT1
			X1	Y1	Z1	X2	Y2	Z2	X3	Y3	Z3	X4	Y4	Z4	X5	Y5	Z5	X6	Y6	Z6	X7	Y7	Z7	X8	Y8	Z8	X9	Y9	Z9	X10	Y10	Z10	X11	Y11	Z11	X12	Y12	Z12	X13	Y13	Z13	X14	Y14	Z14	X15	Y15	Z15	X16	Y16	Z16	X17	Y17	Z17	X18	Y18	Z18	X19	Y19	Z19	X20	Y20	Z20	X21	Y21	Z21	X22	Y22	Z22	X23	Y23	Z23	X24	Y24	Z24	X25	Y25	Z25	X26	Y26	Z26	X27	Y27	Z27	X28	Y28	Z28	X29	Y29	Z29	X30	Y30	Z30	X31	Y31	Z31	X32	Y32	Z32	X33	Y33	Z33	X34	Y34	Z34	X35	Y35	Z35	X36	Y36	Z36	X37	Y37	Z37	X38	Y38	Z38	X39	Y39	Z39	X40	Y40	Z40	X41	Y41	Z41	X42	Y42	Z42	X43	Y43	Z43	X44	Y44	Z44	X45	Y45	Z45	X46	Y46	Z46	X47	Y47	Z47	X48	Y48	Z48	X49	Y49	Z49	X50	Y50	Z50	X51	Y51	Z51	X52	Y52	Z52	X53	Y53	Z53	X54	Y54	Z54	X55	Y55	Z55	X56	Y56	Z56	X57	Y57	Z57	X58	Y58	Z58	X59	Y59	Z59	X60	Y60	Z60	X61	Y61	Z61

653	3.265	741.4	615.4	-150.54	915.85	904.87	236.1	623.93	1634.3	-93.132	704.49	679.16	168.95	560.81	838.9	-259.41	588.33	1274	-265.74	544.45	1122.2	-276.05	622.37	592.85	189.12	546.22	971.14	-276.32	624.04	786.59	-256.44	589.82	1503	-12.782	493.31	1008.3	52.54	509.72	1122.5	-206.46	416.56	226.29	102.94	627.24	1640.7	48.527	703.87	1032	150.56	554.77	350.17	118.29	460.62	302.22	172.7	409.61	30.8	119.94	716.86	703.46	-168.02	763.35	1000.8	277.38	325.64	59.221	167.51	848.69	898.06	247.56	625.14	843.14	-207.17	781.59	725.83	-145.71	586.88	482.22	184.64	676.5	1131.5	284.98	486.35	287.8	108.66	371.27	44.045	95.126	342.27	161.81	63.225	482.8	1279.7	1.1602	520.94	1420.1	129.39	295.33	167.79	139.08	762.97	1239.5	-16.329	698.89	1028.5	-139.12	489.77	1005.4	-25.355	720.23	1412.2	-17.214	237.52	178.59	83.356	678.6	1289.2	241.81	636.74	1108.6	215.56	759.21	515.83	-139.1	804.59	1664.1	-54.356	649.82	1449.2	-182.14	786.62	197.38	-55.391	805.94	1666.1	22.36	798.56	292.99	-55.647	676.47	28.036	-58.647	675.58	1455.8	141.52	778.82	294.89	-128.85	762.79	90.617	-15.66	644.78	781.42	197.74	809.32	382.5	-58.074	837.13	22.648	-130.07	738.11	69.331	-98.113	636.63	685.74	197.07	770.68	526.18	-10.215	881.98	937.99	188.78	615.64	485.01	55.917	694.55	792.84	-182.1	936.53	31.568	-58.601	882.59	39.765	-44.503
654	3.27	744.33	615.43	-151.11	916.85	902.59	237.33	628.46	1634.9	-94.061	712.68	679.96	169.13	569.71	839.36	-260.8	594.34	1274.6	-266.74	551.28	1122.6	-277.45	631.66	592.65	189.35	554.16	971.5	-277.78	633.47	787.67	-257.97	594.36	1503.6	-13.587	498.31	1008.7	51.623	516.34	1122.6	-207.98	424.72	228.49	103.38	631.75	1641.6	47.58	708.61	1033.1	149.94	564.6	350.46	118.64	469.56	303.95	173.01	413.41	31.616	120.52	720.52	703.67	-168.59	765.15	1000.5	277.2	330.75	62.484	167.75	849.56	896.79	248.55	634.21	844.16	-208.7	785.52	725.52	-146.4	597.35	482.08	185.01	679.61	1132	283.82	495.27	289.17	109.22	375.81	45.775	95.518	349.65	164.79	63.579	487.72	1280.1	0.32109	525.4	1420.7	128.51	302.61	171.63	139.35	767.9	1240.3	-16.792	704.19	1029.3	-139.64	494.93	1006.1	-26.301	724.92	1413.1	-17.793	245.21	183.63	83.416	682.44	1289.8	240.99	640.08	1109.5	214.06	761.61	515.68	-139.58	809.12	1664.8	-55.328	654.79	1449.9	-182.77	787.35	197.14	-55.594	810.47	1666.9	21.372	799.87	292.68	-55.953	676.43	28.012	-58.665	679.94	1456.6	140.91	780.01	294.64	-129.12	762.79	90.609	-15.661	651.56	781.52	197.37	811.16	382.13	-58.535	837.11	22.652	-130.09	738.09	69.33	-98.132	644.67	685.73	197.04	772.81	525.97	-10.768	883.7	935.99	189.69	626.84	484.66	56.324	699.01	793.26	-182.76	936.5	31.622	-58.641	882.54	39.831	-44.539
655	3.275	747.17	615.45	-151.67	917.75	900.29	238.61	632.96	1635.6	-94.95	720.83	680.85	169.32	578.69	839.85	-262.19	600.35	1275.2	-267.72	558.13	1123	-278.85	640.91	592.55	189.56	562.15	971.89	-279.25	642.99	788.8	-259.51	598.9	1504.2	-14.364	503.27	1009.1	50.701	522.98	1122.7	-209.51	433.1	230.7	103.75	636.24	1642.5	46.673	713.27	1034.3	149.35	574.61	350.82	118.9	478.68	305.68	173.28	417.92	32.61	121.17	724.08	703.87	-169.16	766.89	1000.2	277.06	336.43	65.813	168.05	850.35	895.51	249.56	643.38	845.24	-210.25	789.35	725.21	-147.08	607.8	482.05	185.35	682.71	1132.5	282.67	504.35	290.6	109.71	381	47.685	95.968	357.28	167.71	63.876	492.6	1280.5	-0.51163	529.83	1421.3	127.65	310.19	175.36	139.59	772.8	1241.2	-17.219	709.44	1030.2	-140.12	500.04	1006.8	-27.243	729.58	1413.9	-18.335	253.14	188.39	83.473	686.24	1290.4	240.22	643.41	1110.4	212.58	763.91	515.53	-140.05	813.62	1665.4	-56.263	659.75	1450.6	-183.36	788.05	196.9	-55.808	814.97	1667.7	20.418	801.13	292.37	-56.269	676.39	27.989	-58.681	684.27	1457.5	140.35	781.13	294.38	-129.4	762.8	90.603	-15.665	658.3	781.69	197.01	812.93	381.76	-59.005	837.09	22.649	-130.11	738.06	69.329	-98.151	652.66	685.82	197	774.73	525.75	-11.296	885.32	933.96	190.66	637.97	484.51	56.679	703.35	793.65	-183.4	936.48	31.67	-58.677	882.5	39.886	-44.576
656	3.28	749.95	615.46	-152.2	918.55	897.98	239.94	637.44	1636.2	-95.799	728.93	681.84	169.53	587.73	840.37	-263.57	606.35	1275.9	-268.69	565	1123.4	-280.25	650.11	592.57	189.74	570.19	972.3	-280.73	652.6	789.98	-261.06	603.44	1504.7	-15.111	508.19	1009.5	49.777	529.64	1122.7	-211.05	441.67	232.91	104.05	640.71	1643.4	45.807	717.83	1035.5	148.79	584.77	351.28	119.07	487.97	307.39	173.51	423.16	33.78	121.89	727.56	704.06	-169.7	768.58	999.87	276.94	342.68	69.165	168.41	851.07	894.21	250.59	652.66	846.37	-211.84	793.1	724.9	-147.73	618.23	482.15	185.65	685.78	1133	281.56	513.59	292.07	110.12	386.85	49.743	96.469	365.18	170.57	64.116	497.45	1281	-1.3378	534.23	1421.8	126.8	318.08	178.94	139.79	777.68	1242	-17.611	714.66	1031	-140.56	505.09	1007.5	-28.178	734.23	1414.7	-18.841	261.33	192.82	83.519	690	1290.9	239.5	646.73	1111.3	211.13	766.13	515.37	-140.5	818.1	1666.1	-57.162	664.7	1451.3	-183.92	788.73	196.67	-56.025	819.46	1668.5	19.502	802.34	292.07	-56.587	676.36	27.969	-58.694	688.58	1458.3	139.83	782.2	294.13	-129.67	762.81	90.6	-15.673	664.99	781.95	196.67	814.64	381.4	-59.475	837.07	22.64	-130.13	738.03	69.329	-98.17	660.6	686.01	196.94	776.47	525.56	-11.794	886.86	931.91	191.67	649	484.55	56.984	707.6	794.03	-184.02	936.45	31.709	-58.71	882.47	39.931	-44.612
